<svg width="150" height="186" viewBox="0 0 150 186" fill="none" xmlns="http://www.w3.org/2000/svg">
<path d="M40.6994 76.8677H31.5063V58.8309H40.6385V49.2377H48.7956V58.7029H57.9872V76.8069H48.7956V76.8681H40.6994V76.8677ZM9.45906 161.522C9.46372 161.967 9.47071 162.3 9.47536 162.517C9.47769 162.652 9.45479 162.776 9.44781 162.907C9.73464 170.287 15.563 176.197 22.7013 176.197H140.603V162.647C140.603 159.942 142.707 157.745 145.302 157.745C147.894 157.745 150 159.942 150 162.647V181.098C150 183.806 147.894 186 145.302 186H21.9921C21.748 186 21.5128 185.964 21.2753 185.926C9.435 185.152 0.0217948 174.887 0.0217948 162.34C0.0217948 162.052 0.0547873 161.774 0.0641027 161.49C-0.0814503 146.935 0.0641026 36.2149 0.0804045 24.1681C0.0621619 23.9968 0.031111 23.8332 0.031111 23.6583C0.031111 10.6117 10.2035 0 22.709 0H30.2169H144.15H145.297C147.892 0 149.995 2.19603 149.995 4.9019V143.45C149.995 146.155 147.891 148.352 145.297 148.352C145.269 148.352 145.246 148.343 145.219 148.343C144.875 148.429 144.512 148.486 144.143 148.486H22.7013C15.6441 148.484 9.86972 154.264 9.45906 161.522ZM93.8977 49.2377H130.548V57.6857H121.355V67.2789H112.224V76.8701H103.029V86.3997H93.8934V106.599H140.778V95.9861H104.066V87.5393H113.261V77.9485H122.392V68.3553H131.587V58.8309H140.777V38.5661H93.8977V49.2377ZM73.1717 77.9485H95.0105V67.2769H73.1717V77.9485ZM21.3397 106.594H31.509V87.5389H40.6998V87.4781H57.9876V106.599H68.2167V57.6857H59.0224V48.0313H49.8293V38.5661H39.6592V48.1568H30.466V57.7501H21.3315V106.594H21.3397Z" fill="#003366"/>
</svg>
